<svg width="154" height="57" viewBox="0 0 154 57" fill="none" xmlns="http://www.w3.org/2000/svg">
<path d="M3 41.4454C10.0693 41.5296 27.6972 39.1394 36.3267 25.287C44.0331 12.9162 47.4355 4.58425 39.8613 3.06954C32.2871 1.55483 23.4504 25.287 23.4504 25.287C23.4504 25.287 13.6039 49.5248 21.4306 52.5545C29.2574 55.5842 48.6979 32.609 45.6682 28.5694C42.6385 24.5298 35.0643 28.5694 33.297 37.1535C31.4388 46.1787 37.5372 52.1646 41.6286 52.5545C46.9306 53.0596 52.7375 48.7676 60.3117 27.307C54.5048 48.7676 55.5147 51.5446 58.7969 53.0596C62.3035 54.6783 70.6632 49.7775 80.5097 27.307C73.6929 49.525 76.8069 51.5448 78.9949 52.5545C83.2869 54.5351 91.6186 48.2626 98.6879 30.0842C92.1235 48.5151 94.6356 51.2481 99.4453 52.0497C105.505 53.0596 116.866 38.921 119.391 26.5496C117.371 39.9309 119.087 43.1298 122.168 43.9703C124.945 44.728 128.732 43.4654 135.549 27.307C129.49 43.9703 128.227 49.2725 132.267 51.797C136.054 54.1638 145.396 50.5347 150.445 39.4258" stroke="#2E2E2E" stroke-width="5.55444" stroke-linecap="round" stroke-linejoin="round"/>
<circle cx="63.5938" cy="17.2084" r="3.0297" fill="#2E2E2E"/>
<circle cx="138.327" cy="17.2084" r="3.0297" fill="#2E2E2E"/>
</svg>
